<svg xmlns="http://www.w3.org/2000/svg" xmlns:xlink="http://www.w3.org/1999/xlink" width="1920" zoomAndPan="magnify" viewBox="0 0 1440 809.999993" height="1080" preserveAspectRatio="xMidYMid meet" version="1.0"><path fill="#000000" d="M 671.597656 160.074219 C 679.671875 137.132812 687.730469 114.191406 695.824219 91.257812 C 697.933594 85.285156 699.320312 84.457031 705.769531 84.707031 C 727.902344 85.582031 748.691406 92.34375 769.429688 99.285156 C 773.234375 100.5625 777.039062 101.898438 780.707031 103.523438 C 784.992188 105.421875 785.804688 106.984375 784.273438 111.117188 C 776.191406 133.003906 769.097656 155.265625 759.617188 176.617188 C 757.308594 181.820312 757.15625 181.890625 762.746094 184.042969 C 782.953125 191.808594 802.480469 200.980469 821.0625 212.109375 C 824.296875 214.046875 827.511719 216.015625 830.636719 218.121094 C 836.882812 222.332031 837.058594 222.308594 839.617188 215.285156 C 846.835938 195.46875 854.050781 175.652344 861.292969 155.84375 C 866.011719 142.933594 866.398438 142.804688 877.5 150.332031 C 896.714844 163.367188 914.34375 178.1875 929.28125 196.085938 C 931.917969 199.25 933.152344 201.851562 931.429688 206.152344 C 925.832031 220.105469 920.753906 234.261719 915.488281 248.347656 C 912.324219 256.808594 909.453125 265.390625 905.925781 273.699219 C 904.351562 277.398438 905.097656 279.703125 907.664062 282.359375 C 924.453125 299.710938 943.925781 313.3125 965.613281 323.75 C 976.425781 328.949219 976.222656 328.589844 971.910156 339.816406 C 964.804688 358.332031 958.046875 376.980469 951.394531 395.667969 C 950.15625 399.144531 946.632812 402.988281 948.253906 406.0625 C 950.003906 409.386719 955.117188 409.589844 958.90625 410.808594 C 979.4375 417.402344 1000.480469 420.132812 1022.03125 419.875 C 1026.765625 419.816406 1028.480469 418.054688 1029.875 413.992188 C 1037.6875 391.191406 1045.847656 368.511719 1053.617188 345.699219 C 1055.351562 340.609375 1057.9375 338.128906 1063.480469 337.085938 C 1081.984375 333.59375 1100.398438 329.605469 1118.527344 324.429688 C 1119.492188 324.15625 1120.472656 323.890625 1121.460938 323.757812 C 1127.1875 322.984375 1129.0625 325.148438 1127.0625 330.617188 C 1121.628906 345.460938 1116.042969 360.242188 1110.523438 375.054688 C 1107.632812 382.816406 1104.515625 390.511719 1101.984375 398.390625 C 1100.695312 402.414062 1098.550781 404.765625 1094.546875 405.976562 C 1076.988281 411.300781 1059.351562 416.300781 1041.214844 419.292969 C 1040.964844 419.335938 1040.707031 419.429688 1040.46875 419.390625 C 1031.363281 417.949219 1028.039062 423.296875 1025.496094 430.949219 C 1019.625 448.566406 1013.128906 465.980469 1006.800781 483.449219 C 1004.589844 489.542969 1002.125 495.550781 999.78125 501.585938 C 1001.855469 503.847656 1004.214844 502.90625 1006.261719 502.6875 C 1023.761719 500.828125 1041.132812 498.175781 1058.082031 493.261719 C 1059.046875 492.984375 1060.019531 492.730469 1060.976562 492.417969 C 1063.183594 491.6875 1065.351562 491.046875 1067.171875 493.246094 C 1068.773438 495.179688 1067.710938 496.957031 1067.015625 498.855469 C 1062.351562 511.578125 1057.753906 524.324219 1053.132812 537.066406 C 1049.535156 546.976562 1045.816406 556.84375 1042.375 566.808594 C 1040.320312 572.765625 1036.742188 576.179688 1030.324219 577.652344 C 1011.90625 581.886719 993.40625 585.332031 974.441406 585 C 969.851562 584.917969 968.378906 587.109375 967.035156 590.699219 C 959.015625 612.09375 950.878906 633.441406 942.78125 654.804688 C 942.515625 655.507812 942.257812 656.21875 941.980469 656.917969 C 938.496094 665.59375 937.707031 665.832031 928.527344 664.34375 C 910.898438 661.492188 893.433594 658 876.574219 652 C 872.09375 650.40625 867.671875 648.515625 863.496094 646.257812 C 858.5 643.550781 858.296875 642.667969 860.097656 637.214844 C 865.210938 621.71875 870.535156 606.289062 876.511719 591.09375 C 879.179688 584.320312 881.367188 577.351562 884.28125 570.691406 C 885.789062 567.246094 884.910156 565.691406 881.832031 564.332031 C 873.773438 560.777344 866.132812 556.433594 858.535156 552.003906 C 844.804688 543.996094 832.238281 534.414062 820.351562 523.90625 C 814.621094 518.839844 814.488281 518.789062 811.714844 526.171875 C 804.222656 546.148438 796.855469 566.171875 789.441406 586.175781 C 788.742188 588.058594 788.167969 589.996094 787.347656 591.824219 C 784.960938 597.121094 782.765625 597.847656 778.253906 593.96875 C 771.785156 588.402344 765.539062 582.550781 759.519531 576.5 C 748.535156 565.457031 737.875 554.089844 726.890625 543.050781 C 723.109375 539.25 722.070312 535.84375 724.027344 530.394531 C 731.644531 509.125 738.597656 487.621094 745.816406 466.207031 C 748.136719 459.335938 748.191406 459.230469 742.730469 454.707031 C 726.1875 440.988281 708 429.882812 688.363281 421.214844 C 673.3125 414.566406 673.261719 414.75 678.789062 399.699219 C 685.449219 381.550781 692.054688 363.378906 698.699219 345.226562 C 700.667969 339.851562 700.761719 339.582031 695.691406 337.351562 C 682.769531 331.660156 669.3125 327.632812 655.382812 325.246094 C 642.261719 322.992188 629.117188 320.894531 615.796875 320.183594 L 615.964844 320.367188 C 614.894531 317.65625 616.640625 315.527344 617.460938 313.222656 C 625.515625 290.523438 633.527344 267.808594 641.71875 245.152344 C 643.175781 241.113281 640.84375 240.921875 638.148438 240.722656 C 623.339844 239.621094 608.527344 239.871094 593.722656 240.859375 C 583.691406 241.523438 573.703125 242.558594 563.796875 244.320312 C 561.652344 244.707031 559.390625 245.59375 557.238281 244.265625 C 556.378906 242.40625 557.300781 240.824219 557.914062 239.214844 C 566.132812 217.632812 574.589844 196.136719 582.445312 174.421875 C 585.035156 167.28125 589.304688 164.417969 596.652344 163.425781 C 620.382812 160.214844 644.171875 159.339844 668.058594 160.167969 C 669.292969 160.210938 670.535156 159.972656 671.765625 159.871094 C 671.597656 161.121094 671.675781 162.453125 671.238281 163.582031 C 662.21875 186.996094 655.683594 211.277344 646.285156 234.558594 C 645.480469 236.546875 644.132812 238.613281 645.222656 241.160156 C 646.410156 241.265625 647.648438 241.382812 648.890625 241.492188 C 674.269531 243.722656 698.984375 249.109375 723.121094 257.179688 C 729.554688 259.328125 729.648438 259.941406 727.402344 266.355469 C 719.703125 288.371094 712.035156 310.394531 704.382812 332.421875 C 702.222656 338.640625 702.277344 338.660156 708.125 340.96875 C 708.59375 341.152344 709.085938 341.269531 709.558594 341.445312 C 731.136719 349.484375 750.867188 360.820312 769 374.960938 C 771.757812 377.109375 775.257812 378.96875 776.816406 381.832031 C 778.773438 385.429688 775.101562 388.832031 773.898438 392.246094 C 766.625 412.820312 759.121094 433.324219 751.480469 453.765625 C 749.058594 460.234375 748.53125 458.90625 753.886719 463.671875 C 772.074219 479.859375 790.324219 495.984375 808.445312 512.25 C 814.503906 517.683594 814.394531 517.855469 817.351562 509.960938 C 825.894531 487.179688 832.722656 463.785156 842.007812 441.265625 C 842.742188 439.496094 842.964844 438.25 841.339844 436.671875 C 822.992188 418.808594 804.632812 400.957031 784.066406 385.582031 C 778.515625 381.429688 778.382812 381.460938 780.839844 374.570312 C 788.851562 352.128906 796.90625 329.703125 805.011719 307.292969 C 805.785156 305.152344 806.601562 303.09375 806.242188 300.792969 C 811.972656 305.308594 817.738281 309.761719 823.410156 314.332031 C 829.082031 318.898438 834.742188 323.492188 840.265625 328.238281 C 845.976562 333.15625 851.496094 338.292969 857.136719 343.296875 C 862.441406 347.992188 866.75 353.847656 872.65625 357.886719 C 873.550781 356.820312 873.996094 356.488281 874.179688 356.046875 C 883.949219 332.355469 892.195312 308.105469 900.429688 283.855469 C 901.453125 280.839844 900.421875 278.640625 898.398438 276.386719 C 882.730469 258.941406 865.601562 243.105469 846.585938 229.359375 C 837.480469 222.777344 837.164062 222.820312 833.050781 233.691406 C 826.035156 252.242188 819.398438 270.933594 812.460938 289.511719 C 810.953125 293.546875 810.195312 298.109375 806.242188 300.855469 C 804.050781 302.25 803.152344 300.035156 801.902344 299.164062 C 797.789062 296.296875 793.910156 293.089844 789.75 290.304688 C 773.011719 279.109375 755.054688 270.226562 736.429688 262.632812 C 729.386719 259.765625 729.207031 259.292969 731.753906 252.050781 C 739.316406 230.535156 746.902344 209.035156 754.535156 187.542969 C 756.5625 181.839844 756.558594 181.378906 751.058594 179.226562 C 735.839844 173.273438 720.179688 168.964844 704.085938 166.011719 C 693.261719 164.023438 682.085938 163.894531 671.597656 160.074219 Z M 874.03125 359.449219 C 872.566406 362.824219 871.511719 365.082031 870.589844 367.390625 C 862.390625 387.886719 854.800781 408.609375 847.671875 429.507812 C 844.800781 437.914062 844.585938 437.957031 851.339844 444.046875 C 867.460938 458.574219 885.179688 470.820312 904.546875 480.640625 C 907.90625 482.34375 911.242188 484.089844 914.652344 485.6875 C 917.078125 486.824219 917.917969 488.027344 916.777344 490.925781 C 907.695312 514.03125 898.863281 537.238281 889.824219 560.363281 C 887.5 566.316406 887.339844 566.453125 893.578125 568.902344 C 908.109375 574.605469 923.15625 578.652344 938.441406 581.601562 C 946.792969 583.210938 955.390625 583.472656 963.859375 584.519531 C 966.945312 584.90625 968.347656 583.78125 969.242188 580.871094 C 970.644531 576.324219 972.457031 571.898438 974.152344 567.445312 C 981.480469 548.222656 988.746094 528.976562 995.253906 509.453125 C 997.640625 502.296875 997.585938 502.34375 989.753906 501.894531 C 977.960938 501.222656 966.203125 500.046875 954.609375 497.789062 C 944.515625 495.824219 934.460938 493.503906 925.0625 489.132812 C 918.667969 486.160156 918.371094 485.617188 920.714844 478.886719 C 925.257812 465.863281 929.9375 452.878906 934.699219 439.929688 C 938.074219 430.746094 941.523438 421.585938 945.238281 412.535156 C 946.71875 408.933594 946.136719 406.832031 942.425781 405.601562 C 941.242188 405.210938 940.128906 404.597656 938.996094 404.054688 C 918.996094 394.445312 900.007812 383.28125 883.6875 368.007812 C 880.773438 365.289062 877.722656 362.71875 874.03125 359.449219 Z M 874.03125 359.449219 " fill-opacity="1" fill-rule="nonzero"/><path fill="#000000" d="M 334.605469 772.582031 C 322.089844 774.007812 310.96875 759.476562 316.164062 746.1875 C 341.753906 680.699219 366.847656 615.023438 392.023438 549.378906 C 414.5 490.773438 438.019531 432.574219 459.839844 373.707031 C 477.640625 325.679688 495.78125 277.777344 514.417969 230.0625 C 532.6875 183.289062 550.152344 136.207031 567.988281 89.265625 C 572.894531 76.351562 577.84375 63.460938 582.835938 50.585938 C 587.4375 38.710938 592.792969 35.792969 605.207031 36.074219 C 615.761719 36.316406 624.664062 51.148438 621.074219 60.378906 C 604.980469 101.792969 589.644531 143.488281 573.480469 184.882812 C 559.871094 219.71875 547.414062 255 534.234375 290 C 524.503906 315.84375 514.398438 341.550781 504.496094 367.332031 C 488.742188 408.34375 472.976562 449.351562 457.292969 490.394531 C 446.003906 519.933594 435.015625 549.589844 423.582031 579.074219 C 405.976562 624.488281 388.066406 669.785156 370.359375 715.164062 C 364.609375 729.894531 359.125 744.730469 353.472656 759.503906 C 349.925781 768.738281 344.179688 772.675781 334.605469 772.582031 Z M 334.605469 772.582031 " fill-opacity="1" fill-rule="nonzero"/><path fill="#000000" d="M 615.8125 320.1875 C 607.910156 337.855469 602.167969 356.324219 595.636719 374.507812 C 593.433594 380.644531 591.226562 386.78125 589.027344 392.921875 C 587.679688 396.691406 585.242188 398.410156 581.015625 398.164062 C 555.511719 396.664062 530.324219 399.214844 505.375 404.492188 C 505.128906 404.542969 504.878906 404.582031 504.628906 404.617188 C 497.199219 405.667969 495.902344 404.308594 498.5625 397.09375 C 504.207031 381.777344 510.1875 366.59375 515.988281 351.335938 C 518.664062 344.296875 521.25 337.222656 523.835938 330.152344 C 525.042969 326.859375 526.929688 324.917969 530.746094 324.226562 C 554.800781 319.894531 578.984375 317.492188 603.449219 318.292969 C 607.746094 318.4375 611.933594 318.824219 615.972656 320.367188 C 615.980469 320.371094 615.8125 320.1875 615.8125 320.1875 Z M 615.8125 320.1875 " fill-opacity="1" fill-rule="nonzero"/></svg>