<svg xmlns="http://www.w3.org/2000/svg" xmlns:xlink="http://www.w3.org/1999/xlink" width="1920" zoomAndPan="magnify" viewBox="0 0 1440 809.999993" height="1080" preserveAspectRatio="xMidYMid meet" version="1.0"><defs><clipPath id="cd8a76ad61"><path d="M 291.441406 89.453125 L 994.90625 89.453125 L 994.90625 720.539062 L 291.441406 720.539062 Z M 291.441406 89.453125 " clip-rule="nonzero"/></clipPath></defs><g clip-path="url(#cd8a76ad61)"><path fill="#003cff" d="M 660.511719 257.949219 C 682 257.949219 699.417969 275.359375 699.417969 296.839844 L 699.417969 381.160156 L 782.96875 381.160156 C 804.453125 381.160156 821.871094 398.574219 821.871094 420.054688 C 821.871094 441.53125 804.453125 458.945312 782.96875 458.945312 L 660.511719 458.945312 C 639.027344 458.945312 621.609375 441.53125 621.609375 420.054688 L 621.648438 419.652344 L 621.609375 419.25 L 621.609375 296.839844 C 621.609375 275.359375 639.027344 257.949219 660.511719 257.949219 Z M 684.789062 89.492188 C 813.171875 91.503906 932.042969 172.28125 977.058594 300.726562 C 1034.695312 465.109375 948.121094 645.078125 783.683594 702.699219 C 676.671875 740.195312 563.066406 716.636719 480.878906 650.304688 C 457.527344 631.46875 463.765625 594.382812 492.082031 584.464844 C 504.550781 580.09375 518.414062 582.480469 528.6875 590.792969 C 591.011719 641.199219 677.222656 659.144531 758.429688 630.6875 C 883.664062 586.804688 949.332031 449.304688 904.390625 324.21875 C 860.15625 201.058594 723.566406 136.125 600.050781 179.5 C 528.472656 204.628906 476.390625 260.363281 453.320312 326.867188 L 449.304688 339.835938 L 481.191406 323.308594 C 500.265625 313.417969 523.746094 320.859375 533.636719 339.929688 C 543.53125 358.996094 536.085938 382.46875 517.011719 392.355469 C 480.777344 411.144531 444.539062 429.925781 408.304688 448.710938 C 403.535156 451.183594 398.492188 452.574219 393.453125 452.96875 L 393 452.960938 L 391.09375 453.320312 C 375.988281 454.636719 360.859375 447.011719 353.3125 432.777344 L 295.976562 324.609375 C 285.914062 305.632812 293.152344 282.09375 312.136719 272.035156 C 331.121094 261.980469 354.671875 269.214844 364.730469 288.195312 L 377.691406 312.640625 L 377.9375 311.738281 C 406.667969 219.261719 477.476562 141.152344 576.128906 107.007812 C 612.152344 94.539062 648.84375 88.929688 684.789062 89.492188 Z M 684.789062 89.492188 " fill-opacity="1" fill-rule="evenodd"/></g></svg>